<?xml version="1.0" encoding="utf-8"?>
<!-- Generator: Adobe Illustrator 17.1.0, SVG Export Plug-In . SVG Version: 6.00 Build 0)  -->
<!DOCTYPE svg PUBLIC "-//W3C//DTD SVG 1.1//EN" "http://www.w3.org/Graphics/SVG/1.1/DTD/svg11.dtd">
<svg version="1.1" id="Слой_1" xmlns="http://www.w3.org/2000/svg" xmlns:xlink="http://www.w3.org/1999/xlink" x="0px" y="0px"
	 width="75px" height="75px" viewBox="0 0 75 75" enable-background="new 0 0 75 75" xml:space="preserve">
<g id="Слой_1_1_">
	<ellipse fill="#FFFFFF" stroke="#F5F5F5" stroke-width="0.75" stroke-miterlimit="10" cx="37.6" cy="37.4" rx="36.7" ry="36.8"/>
</g>
<g id="Слой_5">
	<g id="Слой_4__x28_копия_x29_">
		<path fill="#878787" d="M56.3,53.7H41.9c-0.4,0-0.8-0.4-0.8-0.8c0-0.4,0.4-0.8,0.8-0.8h14.4c0.4,0,0.8,0.4,0.8,0.8
			C57.1,53.4,56.7,53.7,56.3,53.7L56.3,53.7z M56.3,53.7"/>
		<path fill="#878787" d="M56.3,47.7H41.9c-0.4,0-0.8-0.4-0.8-0.8c0-0.4,0.4-0.8,0.8-0.8h14.4c0.4,0,0.8,0.4,0.8,0.8
			C57.1,47.4,56.7,47.7,56.3,47.7L56.3,47.7z M56.3,47.7"/>
		<path fill-rule="evenodd" clip-rule="evenodd" fill="#A4D84A" d="M19.7,57.6h13.5c0.6,0,1-0.4,1-1V43.2c0-0.4-0.3-0.8-0.7-0.9
			c-0.1,0-0.2-0.1-0.3-0.1H19.7c-0.5,0-1,0.4-1,1v13.4C18.7,57.2,19.1,57.6,19.7,57.6L19.7,57.6z M19.7,57.6"/>
		<path fill="#FFFFFF" d="M24.8,55.1c-0.2,0-0.4-0.1-0.6-0.3l-1.4-1.6c-0.3-0.3-0.3-0.8,0.1-1.1c0.3-0.3,0.8-0.3,1.1,0.1l0.8,0.9
			l5.3-7.1c0.3-0.4,0.8-0.4,1.1-0.2c0.4,0.3,0.4,0.8,0.2,1.1l-5.8,7.9C25.3,54.9,25.1,55,24.8,55.1C24.8,55.1,24.8,55.1,24.8,55.1
			L24.8,55.1z M24.8,55.1"/>
	</g>
	<g id="Слой_4">
		<path fill="#878787" d="M56.3,30.7H41.9c-0.4,0-0.8-0.4-0.8-0.8c0-0.4,0.4-0.8,0.8-0.8h14.4c0.4,0,0.8,0.4,0.8,0.8
			C57.1,30.4,56.7,30.7,56.3,30.7L56.3,30.7z M56.3,30.7"/>
		<path fill="#878787" d="M56.3,24.7H41.9c-0.4,0-0.8-0.4-0.8-0.8c0-0.4,0.4-0.8,0.8-0.8h14.4c0.4,0,0.8,0.4,0.8,0.8
			C57.1,24.4,56.7,24.7,56.3,24.7L56.3,24.7z M56.3,24.7"/>
		<path fill-rule="evenodd" clip-rule="evenodd" fill="#A4D84A" d="M19.7,34.6h13.5c0.6,0,1-0.4,1-1V20.2c0-0.4-0.3-0.8-0.7-0.9
			c-0.1,0-0.2-0.1-0.3-0.1H19.7c-0.5,0-1,0.4-1,1v13.4C18.7,34.2,19.1,34.6,19.7,34.6L19.7,34.6z M19.7,34.6"/>
		<path fill="#FFFFFF" d="M24.8,32.1c-0.2,0-0.4-0.1-0.6-0.3l-1.4-1.6c-0.3-0.3-0.3-0.8,0.1-1.1c0.3-0.3,0.8-0.3,1.1,0.1l0.8,0.9
			l5.3-7.1c0.3-0.4,0.8-0.4,1.1-0.2c0.4,0.3,0.4,0.8,0.2,1.1l-5.8,7.9C25.3,31.9,25.1,32,24.8,32.1C24.8,32.1,24.8,32.1,24.8,32.1
			L24.8,32.1z M24.8,32.1"/>
	</g>
</g>
</svg>
