<?xml version="1.0" encoding="utf-8"?>
<!-- Generator: Adobe Illustrator 17.1.0, SVG Export Plug-In . SVG Version: 6.00 Build 0)  -->
<!DOCTYPE svg PUBLIC "-//W3C//DTD SVG 1.1//EN" "http://www.w3.org/Graphics/SVG/1.1/DTD/svg11.dtd">
<svg version="1.1" id="Слой_1" xmlns="http://www.w3.org/2000/svg" xmlns:xlink="http://www.w3.org/1999/xlink" x="0px" y="0px"
	 width="75px" height="75px" viewBox="0 0 75 75" enable-background="new 0 0 75 75" xml:space="preserve">
<ellipse fill="#FFFFFF" stroke="#F5F5F5" stroke-width="0.75" stroke-miterlimit="10" cx="37.6" cy="37.4" rx="36.7" ry="36.8"/>
<g id="Слой_2">
	<path fill="#F7B452" d="M54.7,58.7H20.3c-0.7,0-1.4-0.6-1.4-1.4V20.4c0-0.8,0.6-1.4,1.4-1.4h34.5c0.7,0,1.4,0.6,1.4,1.4v36.8
		C56,58.1,55.5,58.7,54.7,58.7L54.7,58.7z"/>
	<path fill="#FCE781" d="M56.1,50.2V18.7c0-0.8-0.5-1.4-1.3-1.4H22.1c-0.7,0-1.3,0.6-1.3,1.4v36.8c0,0.8,0.5,1.4,1.3,1.4h28.1
		L56.1,50.2z"/>
</g>
<g>
	<path fill="#FFFFFF" d="M50.6,31.8H26.4c-0.4,0-0.7-0.4-0.7-0.9S26,30,26.4,30h24.2c0.4,0,0.7,0.4,0.7,0.9
		C51.3,31.4,50.9,31.8,50.6,31.8L50.6,31.8z"/>
	<path fill="#FFFFFF" d="M50.6,39.7H26.4c-0.4,0-0.7-0.4-0.7-0.9s0.3-0.9,0.7-0.9h24.2c0.4,0,0.7,0.4,0.7,0.9S50.9,39.7,50.6,39.7
		L50.6,39.7z"/>
	<path fill="#FFFFFF" d="M50.6,47.7H26.4c-0.4,0-0.7-0.4-0.7-0.9s0.3-0.9,0.7-0.9h24.2c0.4,0,0.7,0.4,0.7,0.9
		C51.3,47.3,50.9,47.7,50.6,47.7L50.6,47.7z"/>
</g>
<g id="Слой_3">
	<path fill="#97A5F7" d="M63.3,20.5c0,4.9-4,8.9-8.9,8.9s-8.9-4-8.9-8.9s4-8.9,8.9-8.9S63.3,15.6,63.3,20.5L63.3,20.5z"/>
	<path fill="#FFFFFF" d="M59.3,19.7h-4v-4c0-0.5-0.4-0.9-0.9-0.9s-0.9,0.4-0.9,0.9v4h-4c-0.5,0-0.9,0.4-0.9,0.9s0.4,0.9,0.9,0.9h4v4
		c0,0.5,0.4,0.9,0.9,0.9s0.9-0.4,0.9-0.9v-4h4c0.5,0,0.9-0.4,0.9-0.9C60.1,20.1,59.7,19.7,59.3,19.7L59.3,19.7z"/>
</g>
</svg>
