<?xml version="1.0" encoding="utf-8"?>
<!-- Generator: Adobe Illustrator 17.1.0, SVG Export Plug-In . SVG Version: 6.00 Build 0)  -->
<!DOCTYPE svg PUBLIC "-//W3C//DTD SVG 1.1//EN" "http://www.w3.org/Graphics/SVG/1.1/DTD/svg11.dtd">
<svg version="1.1" id="Слой_1" xmlns="http://www.w3.org/2000/svg" xmlns:xlink="http://www.w3.org/1999/xlink" x="0px" y="0px"
	 width="75px" height="75px" viewBox="0 0 75 75" enable-background="new 0 0 75 75" xml:space="preserve">
<g id="Слой_1_1_">
	<ellipse fill="#FFFFFF" stroke="#F5F5F5" stroke-width="0.75" stroke-miterlimit="10" cx="37.6" cy="37.4" rx="36.7" ry="36.8"/>
</g>
<g id="Слой_2">
	<path fill="#A4D84A" d="M58.7,25.7c-0.3-0.3-0.7-0.5-1.1-0.5H23.4c-0.4,0-0.9,0.2-1.1,0.5c-0.3,0.3-0.3,0.8-0.3,1.2l4.5,16.9
		c0.2,0.6,0.7,1,1.4,1H28l26.9-1.4c0.7,0,1.2-0.5,1.3-1.1L59,26.9C59.1,26.5,58.9,26.1,58.7,25.7z"/>
	<g>
		<path fill="#FAFAFA" d="M49.1,39.3c-0.8,0-1.4-0.6-1.4-1.4v-5.7c0-0.8,0.6-1.4,1.4-1.4s1.4,0.6,1.4,1.4v5.7
			C50.6,38.7,49.9,39.3,49.1,39.3z"/>
		<path fill="#FAFAFA" d="M40.7,39.3c-0.8,0-1.4-0.6-1.4-1.4v-5.7c0-0.8,0.6-1.4,1.4-1.4s1.4,0.6,1.4,1.4v5.7
			C42.1,38.7,41.5,39.3,40.7,39.3z"/>
		<path fill="#FAFAFA" d="M32.2,39.3c-0.8,0-1.4-0.6-1.4-1.4v-5.7c0-0.8,0.6-1.4,1.4-1.4s1.4,0.6,1.4,1.4v5.7
			C33.7,38.7,33.1,39.3,32.2,39.3z"/>
	</g>
	<g>
		<circle fill="#AAAAAA" cx="31.4" cy="56.8" r="3.4"/>
		<circle fill="#AAAAAA" cx="48.4" cy="56.8" r="3.4"/>
		<path fill="#AAAAAA" d="M52,50.6H29.4c-0.6,0-1.2-0.4-1.4-1l-7.2-27.2h-5.5c-0.8,0-1.4-0.6-1.4-1.4c0-0.8,0.6-1.4,1.4-1.4h6.5
			c0.6,0,1.2,0.4,1.4,1l7.2,27.2H52c0.8,0,1.4,0.6,1.4,1.4C53.3,50,52.7,50.6,52,50.6z"/>
	</g>
</g>
</svg>
