<?xml version="1.0" encoding="utf-8"?>
<!-- Generator: Adobe Illustrator 17.1.0, SVG Export Plug-In . SVG Version: 6.00 Build 0)  -->
<!DOCTYPE svg PUBLIC "-//W3C//DTD SVG 1.1//EN" "http://www.w3.org/Graphics/SVG/1.1/DTD/svg11.dtd">
<svg version="1.1" id="Слой_1" xmlns="http://www.w3.org/2000/svg" xmlns:xlink="http://www.w3.org/1999/xlink" x="0px" y="0px"
	 width="75px" height="75px" viewBox="0 0 75 75" enable-background="new 0 0 75 75" xml:space="preserve">
<g id="Слой_1_2_">
	<g id="Слой_1_1_">
		<ellipse fill="#FFFFFF" stroke="#F5F5F5" stroke-width="0.75" stroke-miterlimit="10" cx="37.6" cy="37.4" rx="36.7" ry="36.8"/>
	</g>
</g>
<g id="Слой_2_1_">
	<g>
		<path fill="#FCE781" d="M38.6,59.9c6.6,0,12.1-2.1,12.1-4.8c0-2.6-5.4-4.8-12.1-4.8c-6.6,0-12.1,2.1-12.1,4.8
			C26.6,57.7,32,59.9,38.6,59.9L38.6,59.9z"/>
		<path fill="#F4DC76" d="M40,50.4c6,0.3,10.7,2.3,10.7,4.7S46,59.6,40,59.8c3.5-1,5.9-2.7,5.9-4.7C45.9,53.1,43.6,51.3,40,50.4
			L40,50.4z"/>
	</g>
	<g id="Слой_3">
		<path fill="#9FADFC" d="M38.5,14.5c7.4,0,13.4,5.9,13.4,13.2c0,7-5.6,15.4-12.6,23.6c-0.5,0.7-1,0.6-1.6,0
			c-7-8.2-12.6-16.6-12.6-23.6C25.2,20.4,31.1,14.5,38.5,14.5L38.5,14.5z"/>
		<path fill="#8F9AFC" d="M38.5,14.5c7.4,0,13.4,5.9,13.4,13.2c0,7-5.6,15.4-12.6,23.6c-0.5,0.7-1,0.6-1.6,0
			c-0.3-0.4-0.7-0.9-1.1-1.3C43.1,42.1,48,34.3,48,27.6s-5-12.2-11.5-13.1C37.3,14.6,37.9,14.5,38.5,14.5L38.5,14.5z"/>
		<path fill="#FFFFFF" d="M38.5,33.5c3.2,0,5.8-2.6,5.8-5.7c0-3.2-2.6-5.7-5.8-5.7s-5.8,2.6-5.8,5.7C32.6,30.9,35.3,33.5,38.5,33.5
			L38.5,33.5z"/>
	</g>
</g>
</svg>
