<svg xmlns="http://www.w3.org/2000/svg" width="75" height="75"><ellipse fill="#FFF" stroke="#F5F5F5" stroke-width=".75" stroke-miterlimit="10" cx="37.6" cy="37.4" rx="36.7" ry="36.8"/><path fill="#F7B452" d="M54.7 58.7H20.3c-.7 0-1.4-.6-1.4-1.4V20.4c0-.8.6-1.4 1.4-1.4h34.5c.7 0 1.4.6 1.4 1.4v36.8c-.2.9-.7 1.5-1.5 1.5z"/><path fill="#FCE781" d="M56.1 50.2V18.7c0-.8-.5-1.4-1.3-1.4H22.1c-.7 0-1.3.6-1.3 1.4v36.8c0 .8.5 1.4 1.3 1.4h28.1l5.9-6.7z"/><path d="M50.6 31.8H26.4c-.4 0-.7-.4-.7-.9s.3-.9.7-.9h24.2c.4 0 .7.4.7.9s-.4.9-.7.9zm0 7.9H26.4c-.4 0-.7-.4-.7-.9s.3-.9.7-.9h24.2c.4 0 .7.4.7.9s-.4.9-.7.9zm0 8H26.4c-.4 0-.7-.4-.7-.9s.3-.9.7-.9h24.2c.4 0 .7.4.7.9s-.4.9-.7.9z" fill="#FFF"/><path fill="#97A5F7" d="M63.3 20.5c0 4.9-4 8.9-8.9 8.9s-8.9-4-8.9-8.9 4-8.9 8.9-8.9 8.9 4 8.9 8.9z"/><path fill="#FFF" d="M59.3 19.7h-4v-4c0-.5-.4-.9-.9-.9s-.9.4-.9.9v4h-4c-.5 0-.9.4-.9.9s.4.9.9.9h4v4c0 .5.4.9.9.9s.9-.4.9-.9v-4h4c.5 0 .9-.4.9-.9-.1-.5-.5-.9-.9-.9z"/></svg>