<svg xmlns="http://www.w3.org/2000/svg" width="75" height="75"><ellipse fill="#FFF" stroke="#F5F5F5" stroke-width=".75" stroke-miterlimit="10" cx="37.6" cy="37.4" rx="36.7" ry="36.8"/><path fill="#A4D84A" d="M58.7 25.7c-.3-.3-.7-.5-1.1-.5H23.4c-.4 0-.9.2-1.1.5-.3.3-.3.8-.3 1.2l4.5 16.9c.2.6.7 1 1.4 1h.1l26.9-1.4c.7 0 1.2-.5 1.3-1.1L59 26.9c.1-.4-.1-.8-.3-1.2z"/><path d="M49.1 39.3c-.8 0-1.4-.6-1.4-1.4v-5.7c0-.8.6-1.4 1.4-1.4s1.4.6 1.4 1.4v5.7c.1.8-.6 1.4-1.4 1.4zm-8.4 0c-.8 0-1.4-.6-1.4-1.4v-5.7c0-.8.6-1.4 1.4-1.4s1.4.6 1.4 1.4v5.7c0 .8-.6 1.4-1.4 1.4zm-8.5 0c-.8 0-1.4-.6-1.4-1.4v-5.7c0-.8.6-1.4 1.4-1.4s1.4.6 1.4 1.4v5.7c.1.8-.5 1.4-1.4 1.4z" fill="#FAFAFA"/><g fill="#AAA"><circle cx="31.4" cy="56.8" r="3.4"/><circle cx="48.4" cy="56.8" r="3.4"/><path d="M52 50.6H29.4c-.6 0-1.2-.4-1.4-1l-7.2-27.2h-5.5c-.8 0-1.4-.6-1.4-1.4 0-.8.6-1.4 1.4-1.4h6.5c.6 0 1.2.4 1.4 1l7.2 27.2H52c.8 0 1.4.6 1.4 1.4-.1.8-.7 1.4-1.4 1.4z"/></g></svg>