<svg xmlns="http://www.w3.org/2000/svg" width="75" height="75"><ellipse fill="#FFF" stroke="#F5F5F5" stroke-width=".75" stroke-miterlimit="10" cx="37.6" cy="37.4" rx="36.7" ry="36.8"/><path fill="#878787" d="M56.3 53.7H41.9c-.4 0-.8-.4-.8-.8s.4-.8.8-.8h14.4c.4 0 .8.4.8.8 0 .5-.4.8-.8.8zm0-6H41.9c-.4 0-.8-.4-.8-.8s.4-.8.8-.8h14.4c.4 0 .8.4.8.8 0 .5-.4.8-.8.8zm0 0"/><path fill-rule="evenodd" clip-rule="evenodd" fill="#A4D84A" d="M19.7 57.6h13.5c.6 0 1-.4 1-1V43.2c0-.4-.3-.8-.7-.9-.1 0-.2-.1-.3-.1H19.7c-.5 0-1 .4-1 1v13.4c0 .6.4 1 1 1zm0 0"/><path fill="#FFF" d="M24.8 55.1c-.2 0-.4-.1-.6-.3l-1.4-1.6c-.3-.3-.3-.8.1-1.1.3-.3.8-.3 1.1.1l.8.9 5.3-7.1c.3-.4.8-.4 1.1-.2.4.3.4.8.2 1.1l-5.8 7.9c-.3.1-.5.2-.8.3zm0 0"/><path fill="#878787" d="M56.3 30.7H41.9c-.4 0-.8-.4-.8-.8s.4-.8.8-.8h14.4c.4 0 .8.4.8.8 0 .5-.4.8-.8.8zm0-6H41.9c-.4 0-.8-.4-.8-.8s.4-.8.8-.8h14.4c.4 0 .8.4.8.8 0 .5-.4.8-.8.8zm0 0"/><path fill-rule="evenodd" clip-rule="evenodd" fill="#A4D84A" d="M19.7 34.6h13.5c.6 0 1-.4 1-1V20.2c0-.4-.3-.8-.7-.9-.1 0-.2-.1-.3-.1H19.7c-.5 0-1 .4-1 1v13.4c0 .6.4 1 1 1zm0 0"/><path fill="#FFF" d="M24.8 32.1c-.2 0-.4-.1-.6-.3l-1.4-1.6c-.3-.3-.3-.8.1-1.1.3-.3.8-.3 1.1.1l.8.9 5.3-7.1c.3-.4.8-.4 1.1-.2.4.3.4.8.2 1.1l-5.8 7.9c-.3.1-.5.2-.8.3zm0 0"/></svg>