<svg xmlns="http://www.w3.org/2000/svg" width="75" height="75"><ellipse fill="#FFF" stroke="#F5F5F5" stroke-width=".75" stroke-miterlimit="10" cx="37.6" cy="37.4" rx="36.7" ry="36.8"/><path fill="#FCE781" d="M38.6 59.9c6.6 0 12.1-2.1 12.1-4.8 0-2.6-5.4-4.8-12.1-4.8-6.6 0-12.1 2.1-12.1 4.8.1 2.6 5.5 4.8 12.1 4.8z"/><path fill="#F4DC76" d="M40 50.4c6 .3 10.7 2.3 10.7 4.7S46 59.6 40 59.8c3.5-1 5.9-2.7 5.9-4.7s-2.3-3.8-5.9-4.7z"/><path fill="#9FADFC" d="M38.5 14.5c7.4 0 13.4 5.9 13.4 13.2 0 7-5.6 15.4-12.6 23.6-.5.7-1 .6-1.6 0-7-8.2-12.6-16.6-12.6-23.6.1-7.3 6-13.2 13.4-13.2z"/><path fill="#8F9AFC" d="M38.5 14.5c7.4 0 13.4 5.9 13.4 13.2 0 7-5.6 15.4-12.6 23.6-.5.7-1 .6-1.6 0-.3-.4-.7-.9-1.1-1.3C43.1 42.1 48 34.3 48 27.6s-5-12.2-11.5-13.1c.8.1 1.4 0 2 0z"/><path fill="#FFF" d="M38.5 33.5c3.2 0 5.8-2.6 5.8-5.7 0-3.2-2.6-5.7-5.8-5.7s-5.8 2.6-5.8 5.7c-.1 3.1 2.6 5.7 5.8 5.7z"/></svg>