<svg xmlns="http://www.w3.org/2000/svg" width="156" height="135"><path fill="#F2F2F2" d="M0 0h156v135H0z"/><g fill="#CCC"><circle cx="128.8" cy="9" r="3"/><circle cx="137.9" cy="9" r="3"/><circle cx="146.9" cy="9" r="3"/></g><path fill="#FFF" d="M6 100h101v23H6z"/><path fill="#CCC" d="M6 100h27v23H6zm92 6.9c0 .1-.3.1-.6.1H83.6c-.3 0-.6 0-.6-.1v-1.5c0-.1.3-.4.6-.4h13.8c.3 0 .6.3.6.4v1.5zm-31 5c0 .1-.5.1-1.2.1H38.2c-.7 0-1.2 0-1.2-.1v-1.5c0-.1.5-.4 1.2-.4h27.6c.7 0 1.2.3 1.2.4v1.5zm10-5c0 .1-.7.1-1.6.1H38.6c-.9 0-1.6 0-1.6-.1v-1.5c0-.1.7-.4 1.6-.4h36.8c.9 0 1.6.3 1.6.4v1.5z"/><path fill="#FFF" d="M6 74h101v23H6z"/><path fill="#CCC" d="M6 74h27v23H6zm92 6.9c0 .1-.3.1-.6.1H83.6c-.3 0-.6 0-.6-.1v-1.5c0-.1.3-.4.6-.4h13.8c.3 0 .6.3.6.4v1.5zm-31 5c0 .1-.5.1-1.2.1H38.2c-.7 0-1.2 0-1.2-.1v-1.5c0-.1.5-.4 1.2-.4h27.6c.7 0 1.2.3 1.2.4v1.5zm10-5c0 .1-.7.1-1.6.1H38.6c-.9 0-1.6 0-1.6-.1v-1.5c0-.1.7-.4 1.6-.4h36.8c.9 0 1.6.3 1.6.4v1.5z"/><path fill="#FFF" d="M6 48h101v23H6z"/><path fill="#CCC" d="M6 48h27v23H6zm92 6.9c0 .1-.3.1-.6.1H83.6c-.3 0-.6 0-.6-.1v-1.5c0-.1.3-.4.6-.4h13.8c.3 0 .6.3.6.4v1.5zm-31 5c0 .1-.5.1-1.2.1H38.2c-.7 0-1.2 0-1.2-.1v-1.5c0-.1.5-.4 1.2-.4h27.6c.7 0 1.2.3 1.2.4v1.5zm10-5c0 .1-.7.1-1.6.1H38.6c-.9 0-1.6 0-1.6-.1v-1.5c0-.1.7-.4 1.6-.4h36.8c.9 0 1.6.3 1.6.4v1.5z"/><path fill="#FFF" d="M6 22h101v23H6z"/><path fill="#CCC" d="M6 22h27v23H6zm92 6.9c0 .1-.3.1-.6.1H83.6c-.3 0-.6 0-.6-.1v-1.5c0-.1.3-.4.6-.4h13.8c.3 0 .6.3.6.4v1.5zm-31 5c0 .1-.5.1-1.2.1H38.2c-.7 0-1.2 0-1.2-.1v-1.5c0-.1.5-.4 1.2-.4h27.6c.7 0 1.2.3 1.2.4v1.5zm10-5c0 .1-.7.1-1.6.1H38.6c-.9 0-1.6 0-1.6-.1v-1.5c0-.1.7-.4 1.6-.4h36.8c.9 0 1.6.3 1.6.4v1.5z"/><path fill="#FFF" d="M113.7 74h37.2v45.5h-37.2z"/><path fill="#CCC" d="M142.3 115.9c0 .1-.4.1-1 .1H118c-.6 0-1 0-1-.1v-1.5c0-.1.4-.4 1-.4h23.3c.6 0 1 .3 1 .4v1.5zm4.7-5c0 .1-.5.1-1.2.1h-27.6c-.7 0-1.2 0-1.2-.1v-1.5c0-.1.5-.4 1.2-.4h27.6c.7 0 1.2.3 1.2.4v1.5zM113.7 74h37.2v30h-37.2z"/><path fill="#FFF" d="M113.7 22h37.2v45.5h-37.2z"/><path fill="#CCC" d="M142.3 63.9c0 .1-.4.1-1 .1H118c-.6 0-1 0-1-.1v-1.5c0-.1.4-.4 1-.4h23.3c.6 0 1 .3 1 .4v1.5zm4.7-5c0 .1-.5.1-1.2.1h-27.6c-.7 0-1.2 0-1.2-.1v-1.5c0-.1.5-.4 1.2-.4h27.6c.7 0 1.2.3 1.2.4v1.5zM113.7 22h37.2v30h-37.2z"/><path fill="#FFD15C" d="M96.6 68.7l6.1-4.6-6.1-4.7 3.5-6.7-7.5-1.5.2-7.7-7.3 1.9-3.2-7-5.8 5-5.8-5-3.1 7-7.4-1.9.2 7.7-7.5 1.5 3.5 6.7-6.1 4.7 6.1 4.6-3.5 6.8 7.5 1.5-.2 7.6 7.4-1.9 3.1 7 5.8-4.9 5.8 4.9 3.2-7 7.3 1.9-.2-7.6 7.5-1.5z"/><path d="M67.6 82.7l-7.4 1.9.2-6.9-1.5 2.6-8 14.1 9.1-2.5 2.6 9.1 6.5-11.5.8-1.5zm26.5-2.9l-1.4-2.6.1 7.4-7.3-1.9-2.3 5 .9 1.5 6.6 11.8 2.5-9.1 9.1 2.5z" fill="#FF7058"/><path d="M69.9 88l-.8 1.5-2.3-5.1-8.1 2 .2-6.1 1.5-2.6-.2 6.9 7.4-1.9zm24.4-1.6l-8-2-2.2 4.8-.9-1.5 2.3-5 7.3 1.9-.1-7.4 1.4 2.6z" fill="#F1543F"/><circle fill="#F8B64C" cx="76.5" cy="64.1" r="16.3"/><path fill="#F2F2F2" d="M72.6 72.5l-6.1-6.2 2.8-2.8 3.3 3.3 11.1-11.1 2.8 2.8z"/></svg>