<svg xmlns="http://www.w3.org/2000/svg" width="156" height="135"><path fill="#F2F2F2" d="M0 0h156v135H0z"/><g fill="#CCC"><circle cx="128.8" cy="9" r="3"/><circle cx="137.9" cy="9" r="3"/><circle cx="146.9" cy="9" r="3"/></g><path fill="#FFF" d="M6 100h101v23H6z"/><path fill="#CCC" d="M6 100h27v23H6zm92 6.9c0 .1-.3.1-.6.1H83.6c-.3 0-.6 0-.6-.1v-1.5c0-.1.3-.4.6-.4h13.8c.3 0 .6.3.6.4v1.5zm-31 5c0 .1-.5.1-1.2.1H38.2c-.7 0-1.2 0-1.2-.1v-1.5c0-.1.5-.4 1.2-.4h27.6c.7 0 1.2.3 1.2.4v1.5zm10-5c0 .1-.7.1-1.6.1H38.6c-.9 0-1.6 0-1.6-.1v-1.5c0-.1.7-.4 1.6-.4h36.8c.9 0 1.6.3 1.6.4v1.5z"/><path fill="#FFF" d="M6 74h101v23H6z"/><path fill="#CCC" d="M6 74h27v23H6z"/><path fill="#5B0" d="M98 83.8c0 .3-.3.3-.6.3H83.6c-.3 0-.6 0-.6-.3V80c0-.2.3-1 .6-1h13.8c.3 0 .6.8.6 1v3.8z"/><path fill="#CCC" d="M67 85.9c0 .1-.5.1-1.2.1H38.2c-.7 0-1.2 0-1.2-.1v-1.5c0-.1.5-.4 1.2-.4h27.6c.7 0 1.2.3 1.2.4v1.5zm10-5c0 .1-.7.1-1.6.1H38.6c-.9 0-1.6 0-1.6-.1v-1.5c0-.1.7-.4 1.6-.4h36.8c.9 0 1.6.3 1.6.4v1.5z"/><path fill="#FFF" d="M6 48h101v23H6z"/><path fill="#CCC" d="M6 48h27v23H6zm92 6.9c0 .1-.3.1-.6.1H83.6c-.3 0-.6 0-.6-.1v-1.5c0-.1.3-.4.6-.4h13.8c.3 0 .6.3.6.4v1.5zm-31 5c0 .1-.5.1-1.2.1H38.2c-.7 0-1.2 0-1.2-.1v-1.5c0-.1.5-.4 1.2-.4h27.6c.7 0 1.2.3 1.2.4v1.5zm10-5c0 .1-.7.1-1.6.1H38.6c-.9 0-1.6 0-1.6-.1v-1.5c0-.1.7-.4 1.6-.4h36.8c.9 0 1.6.3 1.6.4v1.5z"/><path fill="#FFF" d="M6 22h101v23H6z"/><path fill="#CCC" d="M6 22h27v23H6z"/><path fill="#5B0" d="M98 31.8c0 .3-.3.3-.6.3H83.6c-.3 0-.6 0-.6-.3V28c0-.3.3-1 .6-1h13.8c.3 0 .6.7.6 1v3.8z"/><path fill="#CCC" d="M67 33.9c0 .1-.5.1-1.2.1H38.2c-.7 0-1.2 0-1.2-.1v-1.5c0-.1.5-.4 1.2-.4h27.6c.7 0 1.2.3 1.2.4v1.5zm10-5c0 .1-.7.1-1.6.1H38.6c-.9 0-1.6 0-1.6-.1v-1.5c0-.1.7-.4 1.6-.4h36.8c.9 0 1.6.3 1.6.4v1.5z"/><path fill="#FFF" d="M113.7 74h37.2v45.5h-37.2z"/><path fill="#CCC" d="M142.3 115.9c0 .1-.4.1-1 .1H118c-.6 0-1 0-1-.1v-1.5c0-.1.4-.4 1-.4h23.3c.6 0 1 .3 1 .4v1.5zm4.7-5c0 .1-.5.1-1.2.1h-27.6c-.7 0-1.2 0-1.2-.1v-1.5c0-.1.5-.4 1.2-.4h27.6c.7 0 1.2.3 1.2.4v1.5zM113.7 74h37.2v30h-37.2z"/><path fill="#FFF" d="M113.7 22h37.2v45.5h-37.2z"/><path fill="#CCC" d="M142.3 63.9c0 .1-.4.1-1 .1H118c-.6 0-1 0-1-.1v-1.5c0-.1.4-.4 1-.4h23.3c.6 0 1 .3 1 .4v1.5zm4.7-5c0 .1-.5.1-1.2.1h-27.6c-.7 0-1.2 0-1.2-.1v-1.5c0-.1.5-.4 1.2-.4h27.6c.7 0 1.2.3 1.2.4v1.5zM113.7 22h37.2v30h-37.2z"/></svg>