<svg xmlns="http://www.w3.org/2000/svg" width="156" height="135"><path fill="#F2F2F2" d="M0 0h156v135H0z"/><g fill="#CCC"><circle cx="128.8" cy="9" r="3"/><circle cx="137.9" cy="9" r="3"/><circle cx="146.9" cy="9" r="3"/></g><path fill="#FFF" d="M6 100h101v23H6z"/><path fill="#CCC" d="M6 100h27v23H6zm92 6.9c0 .1-.3.1-.6.1H83.6c-.3 0-.6 0-.6-.1v-1.5c0-.1.3-.4.6-.4h13.8c.3 0 .6.3.6.4v1.5zm-31 5c0 .1-.5.1-1.2.1H38.2c-.7 0-1.2 0-1.2-.1v-1.5c0-.1.5-.4 1.2-.4h27.6c.7 0 1.2.3 1.2.4v1.5zm10-5c0 .1-.7.1-1.6.1H38.6c-.9 0-1.6 0-1.6-.1v-1.5c0-.1.7-.4 1.6-.4h36.8c.9 0 1.6.3 1.6.4v1.5z"/><path fill="#FFF" d="M6 74h101v23H6z"/><path fill="#CCC" d="M6 74h27v23H6zm92 6.9c0 .1-.3.1-.6.1H83.6c-.3 0-.6 0-.6-.1v-1.5c0-.1.3-.4.6-.4h13.8c.3 0 .6.3.6.4v1.5zm-31 5c0 .1-.5.1-1.2.1H38.2c-.7 0-1.2 0-1.2-.1v-1.5c0-.1.5-.4 1.2-.4h27.6c.7 0 1.2.3 1.2.4v1.5zm10-5c0 .1-.7.1-1.6.1H38.6c-.9 0-1.6 0-1.6-.1v-1.5c0-.1.7-.4 1.6-.4h36.8c.9 0 1.6.3 1.6.4v1.5z"/><path fill="#FFF" d="M6 48h101v23H6z"/><path fill="#CCC" d="M6 48h27v23H6zm61 11.9c0 .1-.5.1-1.2.1H38.2c-.7 0-1.2 0-1.2-.1v-1.5c0-.1.5-.4 1.2-.4h27.6c.7 0 1.2.3 1.2.4v1.5zm10-5c0 .1-.7.1-1.6.1H38.6c-.9 0-1.6 0-1.6-.1v-1.5c0-.1.7-.4 1.6-.4h36.8c.9 0 1.6.3 1.6.4v1.5z"/><path fill="#FFF" d="M6 22h101v23H6z"/><path fill="#CCC" d="M6 22h27v23H6zm61 11.9c0 .1-.5.1-1.2.1H38.2c-.7 0-1.2 0-1.2-.1v-1.5c0-.1.5-.4 1.2-.4h27.6c.7 0 1.2.3 1.2.4v1.5zm10-5c0 .1-.7.1-1.6.1H38.6c-.9 0-1.6 0-1.6-.1v-1.5c0-.1.7-.4 1.6-.4h36.8c.9 0 1.6.3 1.6.4v1.5z"/><path fill="#FFF" d="M113.7 74h37.2v45.5h-37.2z"/><path fill="#CCC" d="M142.3 115.9c0 .1-.4.1-1 .1H118c-.6 0-1 0-1-.1v-1.5c0-.1.4-.4 1-.4h23.3c.6 0 1 .3 1 .4v1.5zm4.7-5c0 .1-.5.1-1.2.1h-27.6c-.7 0-1.2 0-1.2-.1v-1.5c0-.1.5-.4 1.2-.4h27.6c.7 0 1.2.3 1.2.4v1.5zM113.7 74h37.2v30h-37.2z"/><path fill="#FFF" d="M113.7 22h37.2v45.5h-37.2z"/><path fill="#CCC" d="M142.3 63.9c0 .1-.4.1-1 .1H118c-.6 0-1 0-1-.1v-1.5c0-.1.4-.4 1-.4h23.3c.6 0 1 .3 1 .4v1.5zm4.7-5c0 .1-.5.1-1.2.1h-27.6c-.7 0-1.2 0-1.2-.1v-1.5c0-.1.5-.4 1.2-.4h27.6c.7 0 1.2.3 1.2.4v1.5zM113.7 22h37.2v30h-37.2z"/><path fill="#DFDAD0" d="M105.4 33.5c0 2.7-1 5.2-2.9 7.1s-4.4 2.9-7.1 2.9c-2.7 0-5.2-1-7.1-2.9-1.9-1.9-2.9-4.4-2.9-7.1s1-5.2 2.9-7.1c1.9-1.9 4.4-2.9 7.1-2.9 2.7 0 5.2 1 7.1 2.9s2.9 4.4 2.9 7.1z"/><path fill="#FFC720" stroke="#FFF" stroke-width="1.5" stroke-miterlimit="10" d="M102.9 33.5c0 4.1-3.3 7.4-7.5 7.4-4.1 0-7.5-3.3-7.5-7.4s3.3-7.5 7.5-7.5c4.1.1 7.5 3.4 7.5 7.5z"/><path fill="#FFDB4D" d="M101.9 35c-.9 3.6-4.5 5.8-8.1 4.9L96.9 27c3.6.9 5.9 4.5 5 8z"/><path fill="#FFF" d="M99.3 32.3c.3.3.3.7 0 .9-.1.1-.3.2-.5.2s-.3-.1-.5-.2L96 30.9v7c0 .4-.3.7-.7.7-.4 0-.7-.3-.7-.7v-7l-2.2 2.3c-.3.3-.7.3-.9 0-.3-.3-.3-.7 0-.9l3.4-3.4c.1-.1.3-.2.5-.2s.3.1.5.2l3.4 3.4z"/><path fill="#DFDAD0" d="M105.4 59.5c0 2.7-1 5.2-2.9 7.1s-4.4 2.9-7.1 2.9c-2.7 0-5.2-1-7.1-2.9-1.9-1.9-2.9-4.4-2.9-7.1s1-5.2 2.9-7.1c1.9-1.9 4.4-2.9 7.1-2.9 2.7 0 5.2 1 7.1 2.9s2.9 4.4 2.9 7.1z"/><path fill="#FFC720" stroke="#FFF" stroke-width="1.5" stroke-miterlimit="10" d="M102.9 59.5c0 4.1-3.3 7.4-7.5 7.4-4.1 0-7.5-3.3-7.5-7.4s3.3-7.5 7.5-7.5c4.1.1 7.5 3.4 7.5 7.5z"/><path fill="#FFDB4D" d="M101.9 61c-.9 3.6-4.5 5.8-8.1 4.9L96.9 53c3.6.9 5.9 4.5 5 8z"/><path fill="#FFF" d="M99.3 58.3c.3.3.3.7 0 .9-.1.1-.3.2-.5.2s-.3-.1-.5-.2L96 56.9v7c0 .4-.3.7-.7.7-.4 0-.7-.3-.7-.7v-7l-2.2 2.3c-.3.3-.7.3-.9 0-.3-.3-.3-.7 0-.9l3.4-3.4c.1-.1.3-.2.5-.2s.3.1.5.2l3.4 3.4z"/></svg>