<svg width="24" height="24" viewBox="0 0 24 24" fill="none" xmlns="http://www.w3.org/2000/svg">
	<path d="M3.9 17.3H20.7C21.2 17.3 21.6 17.7 21.6 18.2C21.6 18.7 21.2 19.1 20.7 19.1H3.9C3.4 19.1 3 18.7 3 18.2C3 17.6 3.4 17.3 3.9 17.3Z" fill="#777777"/>
	<path d="M3.99998 11.1H16.1C16.6 11.1 17 11.5 17 12C17.1 12.5 16.7 13 16.1 13H3.99998C3.49998 13 3.09998 12.6 3.09998 12C3.09998 11.5 3.39998 11.1 3.99998 11.1Z" fill="#777777"/>
	<path d="M3.9 5H20.7C21.2 5 21.7 5.4 21.7 6C21.7 6.5 21.3 6.9 20.8 6.9H3.9C3.4 6.9 3 6.5 3 6C3 5.4 3.4 5 3.9 5Z" fill="#777777"/>
</svg>
