<svg width="24" height="24" viewBox="0 0 24 24" fill="none" xmlns="http://www.w3.org/2000/svg">
<path d="M21.4 6.9C21.1 6.3 20.4 5.9 19.8 5.9H7.4L6.9 3.7C6.8 3.3 6.4 3 5.9 3H4C3.5 3 3 3.4 3 4C3 4.6 3.4 5 4 5H5.2L7.9 14.9C8 15.3 8.4 15.6 8.9 15.6H17.6C18 15.6 18.3 15.4 18.5 15.1L21.7 8.8C21.8 8.1 21.7 7.4 21.4 6.9ZM16.9 13.6H9.5L8 7.8H19.8L16.9 13.6Z" fill="#777777"/>
<path d="M8.30002 20.3C9.07322 20.3 9.70002 19.6732 9.70002 18.9C9.70002 18.1268 9.07322 17.5 8.30002 17.5C7.52683 17.5 6.90002 18.1268 6.90002 18.9C6.90002 19.6732 7.52683 20.3 8.30002 20.3Z" fill="#777777"/>
<path d="M18 20.3C18.7732 20.3 19.4 19.6732 19.4 18.9C19.4 18.1268 18.7732 17.5 18 17.5C17.2268 17.5 16.6 18.1268 16.6 18.9C16.6 19.6732 17.2268 20.3 18 20.3Z" fill="#777777"/>
</svg>
