<?xml version="1.0" encoding="utf-8"?><svg viewBox="0 0 24 24" xmlns="http://www.w3.org/2000/svg" xmlns:xlink="http://www.w3.org/1999/xlink"><style>:root>svg{display:none}:root>svg:target{display:block}</style><svg fill="none" viewBox="0 0 24 24" id="icon-cat" xmlns="http://www.w3.org/2000/svg"><path d="M3.9 17.3h16.8c.5 0 .9.4.9.9s-.4.9-.9.9H3.9c-.5 0-.9-.4-.9-.9 0-.6.4-.9.9-.9zM4 11.1h12.1c.5 0 .9.4.9.9.1.5-.3 1-.9 1H4c-.5 0-.9-.4-.9-1 0-.5.3-.9.9-.9zM3.9 5h16.8c.5 0 1 .4 1 1 0 .5-.4.9-.9.9H3.9c-.5 0-.9-.4-.9-.9 0-.6.4-1 .9-1z" fill="#777"/></svg><svg fill="none" viewBox="0 0 24 24" id="icon-location" xmlns="http://www.w3.org/2000/svg"><path d="M4 12h8v8h.9L20 4 4 11.1v.9z" fill="#777"/></svg><svg fill="none" viewBox="0 0 24 24" id="icon-search" xmlns="http://www.w3.org/2000/svg"><path d="M10.2 4C6.2 4 3 7.2 3 11.2s3.2 7.2 7.2 7.2c1.7 0 3.2-.6 4.5-1.6l3.9 3.9c.3.3.9.3 1.2 0 .3-.3.3-.9 0-1.2l-3.9-3.9c1-1.2 1.5-2.8 1.5-4.4 0-4-3.2-7.2-7.2-7.2zm0 1.7c3.1 0 5.5 2.5 5.5 5.5 0 3.1-2.5 5.5-5.5 5.5-3.1 0-5.5-2.5-5.5-5.5s2.4-5.5 5.5-5.5z" fill="#fff"/></svg><svg fill="none" viewBox="0 0 24 24" id="icon-shop" xmlns="http://www.w3.org/2000/svg"><path d="M21.4 6.9c-.3-.6-1-1-1.6-1H7.4l-.5-2.2c-.1-.4-.5-.7-1-.7H4c-.5 0-1 .4-1 1s.4 1 1 1h1.2l2.7 9.9c.1.4.5.7 1 .7h8.7c.4 0 .7-.2.9-.5l3.2-6.3c.1-.7 0-1.4-.3-1.9zm-4.5 6.7H9.5L8 7.8h11.8l-2.9 5.8zM8.3 20.3a1.4 1.4 0 100-2.8 1.4 1.4 0 000 2.8zM18 20.3a1.4 1.4 0 100-2.8 1.4 1.4 0 000 2.8z" fill="#777"/></svg></svg>