<?xml version="1.0" encoding="utf-8"?>
<!-- Generator: Adobe Illustrator 17.1.0, SVG Export Plug-In . SVG Version: 6.00 Build 0)  -->
<!DOCTYPE svg PUBLIC "-//W3C//DTD SVG 1.1//EN" "http://www.w3.org/Graphics/SVG/1.1/DTD/svg11.dtd">
<svg version="1.1" xmlns="http://www.w3.org/2000/svg" xmlns:xlink="http://www.w3.org/1999/xlink" x="0px" y="0px" width="156px"
	 height="135px" viewBox="0 0 156 135" enable-background="new 0 0 156 135" xml:space="preserve">
<g id="Слой_1">
	<g id="Слой_2">
		<rect fill="#F2F2F2" width="156" height="135"/>
	</g>
	<g id="Слой_1_1_">
		<g>
			<ellipse fill="#CCCCCC" cx="128.8" cy="9" rx="3" ry="3"/>
			<ellipse fill="#CCCCCC" cx="137.9" cy="9" rx="3" ry="3"/>
			<ellipse fill="#CCCCCC" cx="146.9" cy="9" rx="3" ry="3"/>
		</g>
	</g>
	<g id="Слой_5_1_">
		<g id="Слой_8__x28_копия_x29_">
			<g id="Слой_3__x28_копия_x29_">
				<rect x="6" y="100" fill="#FFFFFF" width="101" height="23"/>
			</g>
			<g id="Слой_4__x28_копия_x29_">
				<rect x="6" y="100" fill="#CCCCCC" width="27" height="23"/>
			</g>
			<g id="Слой_5__x28_копия3_x29__1_">
				<path fill="#CCCCCC" d="M98,106.9c0,0.1-0.3,0.1-0.6,0.1H83.6c-0.3,0-0.6,0-0.6-0.1v-1.5c0-0.1,0.3-0.4,0.6-0.4h13.8
					c0.3,0,0.6,0.3,0.6,0.4V106.9z"/>
			</g>
			<g id="Слой_5__x28_копия3_x29_">
				<path fill="#CCCCCC" d="M67,111.9c0,0.1-0.5,0.1-1.2,0.1H38.2c-0.7,0-1.2,0-1.2-0.1v-1.5c0-0.1,0.5-0.4,1.2-0.4h27.6
					c0.7,0,1.2,0.3,1.2,0.4V111.9z"/>
			</g>
			<g id="Слой_5_копия_2">
				<path fill="#CCCCCC" d="M77,106.9c0,0.1-0.7,0.1-1.6,0.1H38.6c-0.9,0-1.6,0-1.6-0.1v-1.5c0-0.1,0.7-0.4,1.6-0.4h36.8
					c0.9,0,1.6,0.3,1.6,0.4C77,105.4,77,106.9,77,106.9z"/>
			</g>
		</g>
		<g id="Слой_8__x28_копия3_x29_">
			<g id="Слой_3__x28_копия3_x29_">
				<rect x="6" y="74" fill="#FFFFFF" width="101" height="23"/>
			</g>
			<g id="Слой_4__x28_копия3_x29_">
				<rect x="6" y="74" fill="#CCCCCC" width="27" height="23"/>
			</g>
			<g id="Слой_5__x28_копия5_x29__1_">
				<path fill="#CCCCCC" d="M98,80.9c0,0.1-0.3,0.1-0.6,0.1H83.6c-0.3,0-0.6,0-0.6-0.1v-1.5c0-0.1,0.3-0.4,0.6-0.4h13.8
					c0.3,0,0.6,0.3,0.6,0.4V80.9z"/>
			</g>
			<g id="Слой_5__x28_копия5_x29_">
				<path fill="#CCCCCC" d="M67,85.9c0,0.1-0.5,0.1-1.2,0.1H38.2c-0.7,0-1.2,0-1.2-0.1v-1.5c0-0.1,0.5-0.4,1.2-0.4h27.6
					c0.7,0,1.2,0.3,1.2,0.4V85.9z"/>
			</g>
			<g id="Слой_5_копия_4">
				<path fill="#CCCCCC" d="M77,80.9c0,0.1-0.7,0.1-1.6,0.1H38.6c-0.9,0-1.6,0-1.6-0.1v-1.5c0-0.1,0.7-0.4,1.6-0.4h36.8
					c0.9,0,1.6,0.3,1.6,0.4C77,79.4,77,80.9,77,80.9z"/>
			</g>
		</g>
		<g id="Слой_9">
			<g id="Слой_8__x28_копия2_x29_">
				<g id="Слой_3__x28_копия2_x29_">
					<rect x="6" y="48" fill="#FFFFFF" width="101" height="23"/>
				</g>
			</g>
			<g id="Слой_8_1_">
				<g id="Слой_4__x28_копия2_x29_">
					<rect x="6" y="48" fill="#CCCCCC" width="27" height="23"/>
				</g>
				<g id="Слой_5__x28_копия4_x29__1_">
					<path fill="#CCCCCC" d="M98,54.9c0,0.1-0.3,0.1-0.6,0.1H83.6c-0.3,0-0.6,0-0.6-0.1v-1.5c0-0.1,0.3-0.4,0.6-0.4h13.8
						c0.3,0,0.6,0.3,0.6,0.4V54.9z"/>
				</g>
				<g id="Слой_5__x28_копия4_x29_">
					<path fill="#CCCCCC" d="M67,59.9c0,0.1-0.5,0.1-1.2,0.1H38.2c-0.7,0-1.2,0-1.2-0.1v-1.5c0-0.1,0.5-0.4,1.2-0.4h27.6
						c0.7,0,1.2,0.3,1.2,0.4V59.9z"/>
				</g>
				<g id="Слой_5_копия_3">
					<path fill="#CCCCCC" d="M77,54.9c0,0.1-0.7,0.1-1.6,0.1H38.6c-0.9,0-1.6,0-1.6-0.1v-1.5c0-0.1,0.7-0.4,1.6-0.4h36.8
						c0.9,0,1.6,0.3,1.6,0.4C77,53.4,77,54.9,77,54.9z"/>
				</g>
			</g>
		</g>
		<g id="Слой_7">
			<g id="Слой_8">
				<g id="Слой_3">
					<rect x="6" y="22" fill="#FFFFFF" width="101" height="23"/>
				</g>
			</g>
			<g id="Слой_6">
				<g id="Слой_4">
					<rect x="6" y="22" fill="#CCCCCC" width="27" height="23"/>
				</g>
				<g id="Слой_5__x28_копия_x29_">
					<path fill="#CCCCCC" d="M98,28.9c0,0.1-0.3,0.1-0.6,0.1H83.6c-0.3,0-0.6,0-0.6-0.1v-1.5c0-0.1,0.3-0.4,0.6-0.4h13.8
						c0.3,0,0.6,0.3,0.6,0.4V28.9z"/>
				</g>
				<g id="Слой_5__x28_копия2_x29_">
					<path fill="#CCCCCC" d="M67,33.9c0,0.1-0.5,0.1-1.2,0.1H38.2c-0.7,0-1.2,0-1.2-0.1v-1.5c0-0.1,0.5-0.4,1.2-0.4h27.6
						c0.7,0,1.2,0.3,1.2,0.4V33.9z"/>
				</g>
				<g id="Слой_5">
					<path fill="#CCCCCC" d="M77,28.9c0,0.1-0.7,0.1-1.6,0.1H38.6c-0.9,0-1.6,0-1.6-0.1v-1.5c0-0.1,0.7-0.4,1.6-0.4h36.8
						c0.9,0,1.6,0.3,1.6,0.4C77,27.4,77,28.9,77,28.9z"/>
				</g>
			</g>
		</g>
	</g>
	<g id="Слой_5_2_">
		<g id="Слой_2__x28_копия_x29_">
			<rect x="113.7" y="74" fill="#FFFFFF" width="37.2" height="45.5"/>
		</g>
		<g id="Слой_4_1_">
			<g id="Слой_5__x28_копия2_x29__4_">
				<path fill="#CCCCCC" d="M142.3,115.9c0,0.1-0.4,0.1-1,0.1H118c-0.6,0-1,0-1-0.1v-1.5c0-0.1,0.4-0.4,1-0.4h23.3
					c0.6,0,1,0.3,1,0.4V115.9z"/>
			</g>
			<g id="Слой_5__x28_копия2_x29__3_">
				<path fill="#CCCCCC" d="M147,110.9c0,0.1-0.5,0.1-1.2,0.1h-27.6c-0.7,0-1.2,0-1.2-0.1v-1.5c0-0.1,0.5-0.4,1.2-0.4h27.6
					c0.7,0,1.2,0.3,1.2,0.4V110.9z"/>
			</g>
			<rect x="113.7" y="74" fill="#CCCCCC" width="37.2" height="30"/>
		</g>
	</g>
	<g id="Слой_3_1_">
		<g id="Слой_2_1_">
			<rect x="113.7" y="22" fill="#FFFFFF" width="37.2" height="45.5"/>
		</g>
		<g id="Слой_2_2_">
			<g id="Слой_5__x28_копия2_x29__2_">
				<path fill="#CCCCCC" d="M142.3,63.9c0,0.1-0.4,0.1-1,0.1H118c-0.6,0-1,0-1-0.1v-1.5c0-0.1,0.4-0.4,1-0.4h23.3c0.6,0,1,0.3,1,0.4
					V63.9z"/>
			</g>
			<g id="Слой_5__x28_копия2_x29__1_">
				<path fill="#CCCCCC" d="M147,58.9c0,0.1-0.5,0.1-1.2,0.1h-27.6c-0.7,0-1.2,0-1.2-0.1v-1.5c0-0.1,0.5-0.4,1.2-0.4h27.6
					c0.7,0,1.2,0.3,1.2,0.4V58.9z"/>
			</g>
			<rect x="113.7" y="22" fill="#CCCCCC" width="37.2" height="30"/>
		</g>
	</g>
</g>
<g id="Слой_2_3_">
	<polygon fill="#FFD15C" points="96.6,68.7 102.7,64.1 96.6,59.4 100.1,52.7 92.6,51.2 92.8,43.5 85.5,45.4 82.3,38.4 76.5,43.4 
		70.7,38.4 67.6,45.4 60.2,43.5 60.4,51.2 52.9,52.7 56.4,59.4 50.3,64.1 56.4,68.7 52.9,75.5 60.4,77 60.2,84.6 67.6,82.7 
		70.7,89.7 76.5,84.8 82.3,89.7 85.5,82.7 92.8,84.6 92.6,77 100.1,75.5 	"/>
	<g>
		<polygon fill="#FF7058" points="67.6,82.7 60.2,84.6 60.4,77.7 58.9,80.3 50.9,94.4 60,91.9 62.6,101 69.1,89.5 69.9,88 		"/>
		<polygon fill="#FF7058" points="94.1,79.8 92.7,77.2 92.8,84.6 85.5,82.7 83.2,87.7 84.1,89.2 90.7,101 93.2,91.9 102.3,94.4 		
			"/>
	</g>
	<g>
		<polygon fill="#F1543F" points="69.9,88 69.1,89.5 66.8,84.4 58.7,86.4 58.9,80.3 60.4,77.7 60.2,84.6 67.6,82.7 		"/>
		<polygon fill="#F1543F" points="94.3,86.4 86.3,84.4 84.1,89.2 83.2,87.7 85.5,82.7 92.8,84.6 92.7,77.2 94.1,79.8 		"/>
	</g>
	<ellipse fill="#F8B64C" cx="76.5" cy="64.1" rx="16.3" ry="16.3"/>
	<polygon fill="#F2F2F2" points="72.6,72.5 66.5,66.3 69.3,63.5 72.6,66.8 83.7,55.7 86.5,58.5 	"/>
</g>
</svg>
