<?xml version="1.0" encoding="utf-8"?>
<!-- Generator: Adobe Illustrator 17.1.0, SVG Export Plug-In . SVG Version: 6.00 Build 0)  -->
<!DOCTYPE svg PUBLIC "-//W3C//DTD SVG 1.1//EN" "http://www.w3.org/Graphics/SVG/1.1/DTD/svg11.dtd">
<svg version="1.1" id="Слой_1" xmlns="http://www.w3.org/2000/svg" xmlns:xlink="http://www.w3.org/1999/xlink" x="0px" y="0px"
	 width="156px" height="135px" viewBox="0 0 156 135" enable-background="new 0 0 156 135" xml:space="preserve">
<g id="Слой_2">
	<rect fill="#F2F2F2" width="156" height="135"/>
</g>
<g id="Слой_1_1_">
	<g>
		<ellipse fill="#CCCCCC" cx="128.8" cy="9" rx="3" ry="3"/>
		<ellipse fill="#CCCCCC" cx="137.9" cy="9" rx="3" ry="3"/>
		<ellipse fill="#CCCCCC" cx="146.9" cy="9" rx="3" ry="3"/>
	</g>
</g>
<g id="Слой_5_1_">
	<g id="Слой_8__x28_копия_x29_">
		<g id="Слой_3__x28_копия_x29_">
			<rect x="6" y="100" fill="#FFFFFF" width="101" height="23"/>
		</g>
		<g id="Слой_4__x28_копия_x29_">
			<rect x="6" y="100" fill="#CCCCCC" width="27" height="23"/>
		</g>
		<g id="Слой_5__x28_копия3_x29__1_">
			<path fill="#CCCCCC" d="M98,106.9c0,0.1-0.3,0.1-0.6,0.1H83.6c-0.3,0-0.6,0-0.6-0.1v-1.5c0-0.1,0.3-0.4,0.6-0.4h13.8
				c0.3,0,0.6,0.3,0.6,0.4V106.9z"/>
		</g>
		<g id="Слой_5__x28_копия3_x29_">
			<path fill="#CCCCCC" d="M67,111.9c0,0.1-0.5,0.1-1.2,0.1H38.2c-0.7,0-1.2,0-1.2-0.1v-1.5c0-0.1,0.5-0.4,1.2-0.4h27.6
				c0.7,0,1.2,0.3,1.2,0.4V111.9z"/>
		</g>
		<g id="Слой_5_копия_2">
			<path fill="#CCCCCC" d="M77,106.9c0,0.1-0.7,0.1-1.6,0.1H38.6c-0.9,0-1.6,0-1.6-0.1v-1.5c0-0.1,0.7-0.4,1.6-0.4h36.8
				c0.9,0,1.6,0.3,1.6,0.4C77,105.4,77,106.9,77,106.9z"/>
		</g>
	</g>
	<g id="Слой_8__x28_копия3_x29_">
		<g id="Слой_3__x28_копия3_x29_">
			<rect x="6" y="74" fill="#FFFFFF" width="101" height="23"/>
		</g>
		<g id="Слой_4__x28_копия3_x29_">
			<rect x="6" y="74" fill="#CCCCCC" width="27" height="23"/>
		</g>
		<g id="Слой_5__x28_копия5_x29__1_">
			<path fill="#CCCCCC" d="M98,80.9c0,0.1-0.3,0.1-0.6,0.1H83.6c-0.3,0-0.6,0-0.6-0.1v-1.5c0-0.1,0.3-0.4,0.6-0.4h13.8
				c0.3,0,0.6,0.3,0.6,0.4V80.9z"/>
		</g>
		<g id="Слой_5__x28_копия5_x29_">
			<path fill="#CCCCCC" d="M67,85.9c0,0.1-0.5,0.1-1.2,0.1H38.2c-0.7,0-1.2,0-1.2-0.1v-1.5c0-0.1,0.5-0.4,1.2-0.4h27.6
				c0.7,0,1.2,0.3,1.2,0.4V85.9z"/>
		</g>
		<g id="Слой_5_копия_4">
			<path fill="#CCCCCC" d="M77,80.9c0,0.1-0.7,0.1-1.6,0.1H38.6c-0.9,0-1.6,0-1.6-0.1v-1.5c0-0.1,0.7-0.4,1.6-0.4h36.8
				c0.9,0,1.6,0.3,1.6,0.4C77,79.4,77,80.9,77,80.9z"/>
		</g>
	</g>
	<g id="Слой_9">
		<g id="Слой_8__x28_копия2_x29_">
			<g id="Слой_3__x28_копия2_x29_">
				<rect x="6" y="48" fill="#FFFFFF" width="101" height="23"/>
			</g>
		</g>
		<g id="Слой_8_1_">
			<g id="Слой_4__x28_копия2_x29_">
				<rect x="6" y="48" fill="#CCCCCC" width="27" height="23"/>
			</g>
			<g id="Слой_5__x28_копия4_x29__1_" display="none">
				<path display="inline" fill="#347ED1" d="M98,54.9c0,0.1-0.3,0.1-0.6,0.1H83.6c-0.3,0-0.6,0-0.6-0.1v-1.5c0-0.1,0.3-0.4,0.6-0.4
					h13.8c0.3,0,0.6,0.3,0.6,0.4V54.9z"/>
			</g>
			<g id="Слой_5__x28_копия4_x29_">
				<path fill="#CCCCCC" d="M67,59.9c0,0.1-0.5,0.1-1.2,0.1H38.2c-0.7,0-1.2,0-1.2-0.1v-1.5c0-0.1,0.5-0.4,1.2-0.4h27.6
					c0.7,0,1.2,0.3,1.2,0.4V59.9z"/>
			</g>
			<g id="Слой_5_копия_3">
				<path fill="#CCCCCC" d="M77,54.9c0,0.1-0.7,0.1-1.6,0.1H38.6c-0.9,0-1.6,0-1.6-0.1v-1.5c0-0.1,0.7-0.4,1.6-0.4h36.8
					c0.9,0,1.6,0.3,1.6,0.4C77,53.4,77,54.9,77,54.9z"/>
			</g>
		</g>
	</g>
	<g id="Слой_7">
		<g id="Слой_8">
			<g id="Слой_3">
				<rect x="6" y="22" fill="#FFFFFF" width="101" height="23"/>
			</g>
		</g>
		<g id="Слой_6">
			<g id="Слой_4">
				<rect x="6" y="22" fill="#CCCCCC" width="27" height="23"/>
			</g>
			<g id="Слой_5__x28_копия_x29_" display="none">
				<path display="inline" fill="#347ED1" d="M98,28.9c0,0.1-0.3,0.1-0.6,0.1H83.6c-0.3,0-0.6,0-0.6-0.1v-1.5c0-0.1,0.3-0.4,0.6-0.4
					h13.8c0.3,0,0.6,0.3,0.6,0.4V28.9z"/>
			</g>
			<g id="Слой_5__x28_копия2_x29_">
				<path fill="#CCCCCC" d="M67,33.9c0,0.1-0.5,0.1-1.2,0.1H38.2c-0.7,0-1.2,0-1.2-0.1v-1.5c0-0.1,0.5-0.4,1.2-0.4h27.6
					c0.7,0,1.2,0.3,1.2,0.4V33.9z"/>
			</g>
			<g id="Слой_5">
				<path fill="#CCCCCC" d="M77,28.9c0,0.1-0.7,0.1-1.6,0.1H38.6c-0.9,0-1.6,0-1.6-0.1v-1.5c0-0.1,0.7-0.4,1.6-0.4h36.8
					c0.9,0,1.6,0.3,1.6,0.4C77,27.4,77,28.9,77,28.9z"/>
			</g>
		</g>
	</g>
</g>
<g id="Слой_2__x28_копия_x29_">
	<rect x="113.7" y="74" fill="#FFFFFF" width="37.2" height="45.5"/>
	<g id="Слой_5__x28_копия2_x29__4_">
		<path fill="#CCCCCC" d="M142.3,115.9c0,0.1-0.4,0.1-1,0.1H118c-0.6,0-1,0-1-0.1v-1.5c0-0.1,0.4-0.4,1-0.4h23.3c0.6,0,1,0.3,1,0.4
			V115.9z"/>
	</g>
	<g id="Слой_5__x28_копия2_x29__3_">
		<path fill="#CCCCCC" d="M147,110.9c0,0.1-0.5,0.1-1.2,0.1h-27.6c-0.7,0-1.2,0-1.2-0.1v-1.5c0-0.1,0.5-0.4,1.2-0.4h27.6
			c0.7,0,1.2,0.3,1.2,0.4V110.9z"/>
	</g>
	<rect x="113.7" y="74" fill="#CCCCCC" width="37.2" height="30"/>
</g>
<g id="Слой_2_1_">
	<rect x="113.7" y="22" fill="#FFFFFF" width="37.2" height="45.5"/>
	<g id="Слой_5__x28_копия2_x29__2_">
		<path fill="#CCCCCC" d="M142.3,63.9c0,0.1-0.4,0.1-1,0.1H118c-0.6,0-1,0-1-0.1v-1.5c0-0.1,0.4-0.4,1-0.4h23.3c0.6,0,1,0.3,1,0.4
			V63.9z"/>
	</g>
	<g id="Слой_5__x28_копия2_x29__1_">
		<path fill="#CCCCCC" d="M147,58.9c0,0.1-0.5,0.1-1.2,0.1h-27.6c-0.7,0-1.2,0-1.2-0.1v-1.5c0-0.1,0.5-0.4,1.2-0.4h27.6
			c0.7,0,1.2,0.3,1.2,0.4V58.9z"/>
	</g>
	<rect x="113.7" y="22" fill="#CCCCCC" width="37.2" height="30"/>
</g>
<g id="Слой_4_1_">
	<path fill="#DFDAD0" d="M105.4,33.5c0,2.7-1,5.2-2.9,7.1s-4.4,2.9-7.1,2.9c-2.7,0-5.2-1-7.1-2.9c-1.9-1.9-2.9-4.4-2.9-7.1
		s1-5.2,2.9-7.1c1.9-1.9,4.4-2.9,7.1-2.9c2.7,0,5.2,1,7.1,2.9S105.4,30.8,105.4,33.5z"/>
	<path fill="#FFC720" stroke="#FFFFFF" stroke-width="1.5" stroke-miterlimit="10" d="M102.9,33.5c0,4.1-3.3,7.4-7.5,7.4
		c-4.1,0-7.5-3.3-7.5-7.4s3.3-7.5,7.5-7.5C99.5,26.1,102.9,29.4,102.9,33.5z"/>
	<path fill="#FFDB4D" d="M101.9,35c-0.9,3.6-4.5,5.8-8.1,4.9L96.9,27C100.5,27.9,102.8,31.5,101.9,35z"/>
	<path fill="#FFFFFF" d="M99.3,32.3c0.3,0.3,0.3,0.7,0,0.9c-0.1,0.1-0.3,0.2-0.5,0.2c-0.2,0-0.3-0.1-0.5-0.2L96,30.9v7
		c0,0.4-0.3,0.7-0.7,0.7c-0.4,0-0.7-0.3-0.7-0.7v-7l-2.2,2.3c-0.3,0.3-0.7,0.3-0.9,0c-0.3-0.3-0.3-0.7,0-0.9l3.4-3.4
		c0.1-0.1,0.3-0.2,0.5-0.2c0.2,0,0.3,0.1,0.5,0.2L99.3,32.3z"/>
</g>
<g id="Слой_4_2_">
	<path fill="#DFDAD0" d="M105.4,59.5c0,2.7-1,5.2-2.9,7.1s-4.4,2.9-7.1,2.9c-2.7,0-5.2-1-7.1-2.9c-1.9-1.9-2.9-4.4-2.9-7.1
		s1-5.2,2.9-7.1c1.9-1.9,4.4-2.9,7.1-2.9c2.7,0,5.2,1,7.1,2.9S105.4,56.8,105.4,59.5z"/>
	<path fill="#FFC720" stroke="#FFFFFF" stroke-width="1.5" stroke-miterlimit="10" d="M102.9,59.5c0,4.1-3.3,7.4-7.5,7.4
		c-4.1,0-7.5-3.3-7.5-7.4s3.3-7.5,7.5-7.5C99.5,52.1,102.9,55.4,102.9,59.5z"/>
	<path fill="#FFDB4D" d="M101.9,61c-0.9,3.6-4.5,5.8-8.1,4.9L96.9,53C100.5,53.9,102.8,57.5,101.9,61z"/>
	<path fill="#FFFFFF" d="M99.3,58.3c0.3,0.3,0.3,0.7,0,0.9c-0.1,0.1-0.3,0.2-0.5,0.2c-0.2,0-0.3-0.1-0.5-0.2L96,56.9v7
		c0,0.4-0.3,0.7-0.7,0.7c-0.4,0-0.7-0.3-0.7-0.7v-7l-2.2,2.3c-0.3,0.3-0.7,0.3-0.9,0c-0.3-0.3-0.3-0.7,0-0.9l3.4-3.4
		c0.1-0.1,0.3-0.2,0.5-0.2c0.2,0,0.3,0.1,0.5,0.2L99.3,58.3z"/>
</g>
</svg>
